<?xml version="1.0" encoding="utf-8"?>
<!-- Generator: Adobe Illustrator 19.1.0, SVG Export Plug-In . SVG Version: 6.00 Build 0)  -->
<svg version="1.1" id="Layer_1" xmlns="http://www.w3.org/2000/svg" xmlns:xlink="http://www.w3.org/1999/xlink" x="0px" y="0px"
	 viewBox="-909 478 100 125" style="enable-background:new -909 478 100 125;" xml:space="preserve">
<style type="text/css">
	.st0{fill:#FFFFFF;}
</style>
<path class="st0" d="M-820.9,503c-0.4-0.4-0.9-0.6-1.5-0.6c-0.5,0-1.1,0.2-1.4,0.7l-0.1,0.2c0,0-0.1,0.1-0.1,0.1
	c-1.4,1.4-3.2,2.1-5.2,2.1s-3.8-0.8-5.2-2.1c-1.4-1.4-2.1-3.2-2.1-5.2s0.8-3.8,2.1-5.2c0,0,0.1-0.1,0.1-0.1l0.1-0.1
	c0.4-0.4,0.6-0.9,0.7-1.4c0-0.5-0.2-1.1-0.6-1.5l-5.1-5.1c-2-2-4.6-3.1-7.5-3.1c-3.2,0-6.3,1.3-8.7,3.7l-46.5,46.5
	c-2.2,2.2-3.3,4.9-3.3,7.8c0,2.8,1.2,5.6,3.4,7.8l5.1,5.1c0.8,0.8,2.1,0.8,2.8,0c1.3-1.3,3.2-2,5.2-2c2,0,3.8,0.7,5.1,2
	c1.3,1.3,2.1,3.2,2,5.2c0,2-0.8,3.8-2,5.1c-0.4,0.4-0.6,0.9-0.6,1.4c0,0.5,0.2,1,0.6,1.4l5.1,5.1c2.3,2.3,5.5,3.7,8.6,3.7l0,0
	c2.8,0,5.5-1.1,7.5-3.1l46.5-46.5c2.1-2.1,3.3-5.2,3.4-8.3c0-3.2-1.2-6.2-3.3-8.4L-820.9,503z M-818.7,521.9l-46.5,46.5
	c-1.6,1.6-3.4,1.9-4.6,1.9c-2.1,0-4.2-0.9-5.8-2.5l-3.8-3.8c1.2-1.8,1.9-4,1.9-6.3c0-3.1-1.1-6-3.2-8.1c-2.1-2.1-4.9-3.2-7.9-3.2
	c-2.4,0-4.6,0.7-6.5,1.9l-3.8-3.8c-1.4-1.4-2.2-3.2-2.2-4.9c0-1.8,0.8-3.5,2.1-4.9l46.5-46.5c1.6-1.6,3.7-2.5,5.8-2.5
	c1.3,0,3.1,0.3,4.7,1.9l3.7,3.7c-1.5,2-2.3,4.3-2.3,6.8c0,3,1.2,5.9,3.3,8c2.1,2.1,5,3.3,8,3.3c2.5,0,4.9-0.8,6.8-2.3l3.7,3.7
	c1.4,1.4,2.2,3.4,2.1,5.5C-816.5,518.5-817.3,520.5-818.7,521.9z"/>
<path class="st0" d="M-852.1,501c-0.8-0.8-2-0.8-2.8,0l-31.2,31.2c-0.8,0.8-0.8,2,0,2.8l20.6,20.6c0.4,0.4,0.9,0.6,1.4,0.6
	c0.5,0,1-0.2,1.4-0.6l31.2-31.2c0.8-0.8,0.8-2,0-2.8L-852.1,501z M-864.2,551.4l-17.8-17.8l28.4-28.4l17.8,17.8L-864.2,551.4z"/>
</svg>
